<svg width="1200" height="630" viewBox="0 0 1200 630" fill="none" xmlns="http://www.w3.org/2000/svg">
  <rect width="1200" height="630" rx="40" fill="#FFFFFF"/>
  <rect x="64" y="64" width="1072" height="502" rx="32" fill="#F8FAFC" stroke="#E2E8F0"/>
  <rect x="104" y="104" width="120" height="120" rx="32" fill="#0B1220"/>
  <path d="M136 144H164L184 184H156L136 144Z" fill="#FFFFFF"/>
  <path d="M164 144H192L172 184H144L164 144Z" fill="#2563EB"/>
  <text x="264" y="164" fill="#0B1220" font-family="Inter, Arial, sans-serif" font-size="48" font-weight="700">BugNet</text>
  <text x="264" y="224" fill="#64748B" font-family="Inter, Arial, sans-serif" font-size="28">Building software that businesses trust.</text>
  <rect x="264" y="300" width="400" height="16" rx="8" fill="#CBD5E1"/>
  <rect x="264" y="336" width="320" height="16" rx="8" fill="#E2E8F0"/>
  <rect x="264" y="388" width="178" height="56" rx="20" fill="#0B1220"/>
  <text x="300" y="424" fill="#FFFFFF" font-family="Inter, Arial, sans-serif" font-size="20" font-weight="600">Start a Project</text>
  <circle cx="888" cy="314" r="120" fill="#2563EB" fill-opacity="0.08"/>
  <circle cx="940" cy="250" r="42" fill="#2563EB" fill-opacity="0.18"/>
  <rect x="820" y="352" width="280" height="160" rx="36" fill="#FFFFFF" stroke="#E2E8F0"/>
  <rect x="860" y="388" width="120" height="14" rx="7" fill="#CBD5E1"/>
  <rect x="860" y="418" width="200" height="14" rx="7" fill="#E2E8F0"/>
  <rect x="860" y="454" width="80" height="14" rx="7" fill="#CBD5E1"/>
</svg>

